<mxfile host="app.diagrams.net" modified="2022-02-02T04:12:33.465Z" agent="5.0 (Macintosh; Intel Mac OS X 10_15_7) AppleWebKit/537.36 (KHTML, like Gecko) Chrome/97.0.4692.99 Safari/537.36" etag="iGsfaKVtamENwgTMFZzF" version="16.5.2" type="github">
  <diagram id="_Bhg0joz_5yfXXdzEZxt" name="Page-1">
    <mxGraphModel dx="1183" dy="768" grid="1" gridSize="10" guides="1" tooltips="1" connect="1" arrows="1" fold="1" page="1" pageScale="1" pageWidth="827" pageHeight="1169" math="0" shadow="0">
      <root>
        <mxCell id="0" />
        <mxCell id="1" parent="0" />
        <mxCell id="TiyXwvmXW0x5IEj1qEjY-1" value="user" style="swimlane;fontStyle=0;childLayout=stackLayout;horizontal=1;startSize=26;fillColor=none;horizontalStack=0;resizeParent=1;resizeParentMax=0;resizeLast=0;collapsible=1;marginBottom=0;" vertex="1" parent="1">
          <mxGeometry x="130" y="30" width="140" height="988" as="geometry" />
        </mxCell>
        <mxCell id="TiyXwvmXW0x5IEj1qEjY-2" value="id" style="text;strokeColor=none;fillColor=none;align=left;verticalAlign=top;spacingLeft=4;spacingRight=4;overflow=hidden;rotatable=0;points=[[0,0.5],[1,0.5]];portConstraint=eastwest;" vertex="1" parent="TiyXwvmXW0x5IEj1qEjY-1">
          <mxGeometry y="26" width="140" height="26" as="geometry" />
        </mxCell>
        <mxCell id="TiyXwvmXW0x5IEj1qEjY-3" value="email" style="text;strokeColor=none;fillColor=none;align=left;verticalAlign=top;spacingLeft=4;spacingRight=4;overflow=hidden;rotatable=0;points=[[0,0.5],[1,0.5]];portConstraint=eastwest;" vertex="1" parent="TiyXwvmXW0x5IEj1qEjY-1">
          <mxGeometry y="52" width="140" height="26" as="geometry" />
        </mxCell>
        <mxCell id="TiyXwvmXW0x5IEj1qEjY-4" value="password" style="text;strokeColor=none;fillColor=none;align=left;verticalAlign=top;spacingLeft=4;spacingRight=4;overflow=hidden;rotatable=0;points=[[0,0.5],[1,0.5]];portConstraint=eastwest;" vertex="1" parent="TiyXwvmXW0x5IEj1qEjY-1">
          <mxGeometry y="78" width="140" height="26" as="geometry" />
        </mxCell>
        <mxCell id="TiyXwvmXW0x5IEj1qEjY-37" value="role" style="text;strokeColor=none;fillColor=none;align=left;verticalAlign=top;spacingLeft=4;spacingRight=4;overflow=hidden;rotatable=0;points=[[0,0.5],[1,0.5]];portConstraint=eastwest;" vertex="1" parent="TiyXwvmXW0x5IEj1qEjY-1">
          <mxGeometry y="104" width="140" height="26" as="geometry" />
        </mxCell>
        <mxCell id="TiyXwvmXW0x5IEj1qEjY-34" value="status" style="text;strokeColor=none;fillColor=none;align=left;verticalAlign=top;spacingLeft=4;spacingRight=4;overflow=hidden;rotatable=0;points=[[0,0.5],[1,0.5]];portConstraint=eastwest;" vertex="1" parent="TiyXwvmXW0x5IEj1qEjY-1">
          <mxGeometry y="130" width="140" height="26" as="geometry" />
        </mxCell>
        <mxCell id="TiyXwvmXW0x5IEj1qEjY-5" value="firstname" style="text;strokeColor=none;fillColor=none;align=left;verticalAlign=top;spacingLeft=4;spacingRight=4;overflow=hidden;rotatable=0;points=[[0,0.5],[1,0.5]];portConstraint=eastwest;" vertex="1" parent="TiyXwvmXW0x5IEj1qEjY-1">
          <mxGeometry y="156" width="140" height="26" as="geometry" />
        </mxCell>
        <mxCell id="TiyXwvmXW0x5IEj1qEjY-6" value="lastname" style="text;strokeColor=none;fillColor=none;align=left;verticalAlign=top;spacingLeft=4;spacingRight=4;overflow=hidden;rotatable=0;points=[[0,0.5],[1,0.5]];portConstraint=eastwest;" vertex="1" parent="TiyXwvmXW0x5IEj1qEjY-1">
          <mxGeometry y="182" width="140" height="26" as="geometry" />
        </mxCell>
        <mxCell id="TiyXwvmXW0x5IEj1qEjY-8" value="photo" style="text;strokeColor=none;fillColor=none;align=left;verticalAlign=top;spacingLeft=4;spacingRight=4;overflow=hidden;rotatable=0;points=[[0,0.5],[1,0.5]];portConstraint=eastwest;" vertex="1" parent="TiyXwvmXW0x5IEj1qEjY-1">
          <mxGeometry y="208" width="140" height="26" as="geometry" />
        </mxCell>
        <mxCell id="TiyXwvmXW0x5IEj1qEjY-9" value="sex" style="text;strokeColor=none;fillColor=none;align=left;verticalAlign=top;spacingLeft=4;spacingRight=4;overflow=hidden;rotatable=0;points=[[0,0.5],[1,0.5]];portConstraint=eastwest;" vertex="1" parent="TiyXwvmXW0x5IEj1qEjY-1">
          <mxGeometry y="234" width="140" height="26" as="geometry" />
        </mxCell>
        <mxCell id="TiyXwvmXW0x5IEj1qEjY-10" value="birthdayÂ " style="text;strokeColor=none;fillColor=none;align=left;verticalAlign=top;spacingLeft=4;spacingRight=4;overflow=hidden;rotatable=0;points=[[0,0.5],[1,0.5]];portConstraint=eastwest;" vertex="1" parent="TiyXwvmXW0x5IEj1qEjY-1">
          <mxGeometry y="260" width="140" height="26" as="geometry" />
        </mxCell>
        <mxCell id="TiyXwvmXW0x5IEj1qEjY-11" value="address" style="text;strokeColor=none;fillColor=none;align=left;verticalAlign=top;spacingLeft=4;spacingRight=4;overflow=hidden;rotatable=0;points=[[0,0.5],[1,0.5]];portConstraint=eastwest;" vertex="1" parent="TiyXwvmXW0x5IEj1qEjY-1">
          <mxGeometry y="286" width="140" height="26" as="geometry" />
        </mxCell>
        <mxCell id="TiyXwvmXW0x5IEj1qEjY-38" value="city" style="text;strokeColor=none;fillColor=none;align=left;verticalAlign=top;spacingLeft=4;spacingRight=4;overflow=hidden;rotatable=0;points=[[0,0.5],[1,0.5]];portConstraint=eastwest;" vertex="1" parent="TiyXwvmXW0x5IEj1qEjY-1">
          <mxGeometry y="312" width="140" height="26" as="geometry" />
        </mxCell>
        <mxCell id="TiyXwvmXW0x5IEj1qEjY-39" value="country" style="text;strokeColor=none;fillColor=none;align=left;verticalAlign=top;spacingLeft=4;spacingRight=4;overflow=hidden;rotatable=0;points=[[0,0.5],[1,0.5]];portConstraint=eastwest;" vertex="1" parent="TiyXwvmXW0x5IEj1qEjY-1">
          <mxGeometry y="338" width="140" height="26" as="geometry" />
        </mxCell>
        <mxCell id="TiyXwvmXW0x5IEj1qEjY-12" value="phone" style="text;strokeColor=none;fillColor=none;align=left;verticalAlign=top;spacingLeft=4;spacingRight=4;overflow=hidden;rotatable=0;points=[[0,0.5],[1,0.5]];portConstraint=eastwest;" vertex="1" parent="TiyXwvmXW0x5IEj1qEjY-1">
          <mxGeometry y="364" width="140" height="26" as="geometry" />
        </mxCell>
        <mxCell id="TiyXwvmXW0x5IEj1qEjY-13" value="socials" style="text;strokeColor=none;fillColor=none;align=left;verticalAlign=top;spacingLeft=4;spacingRight=4;overflow=hidden;rotatable=0;points=[[0,0.5],[1,0.5]];portConstraint=eastwest;" vertex="1" parent="TiyXwvmXW0x5IEj1qEjY-1">
          <mxGeometry y="390" width="140" height="26" as="geometry" />
        </mxCell>
        <mxCell id="TiyXwvmXW0x5IEj1qEjY-14" value="languages" style="text;strokeColor=none;fillColor=none;align=left;verticalAlign=top;spacingLeft=4;spacingRight=4;overflow=hidden;rotatable=0;points=[[0,0.5],[1,0.5]];portConstraint=eastwest;" vertex="1" parent="TiyXwvmXW0x5IEj1qEjY-1">
          <mxGeometry y="416" width="140" height="26" as="geometry" />
        </mxCell>
        <mxCell id="TiyXwvmXW0x5IEj1qEjY-15" value="education" style="text;strokeColor=none;fillColor=none;align=left;verticalAlign=top;spacingLeft=4;spacingRight=4;overflow=hidden;rotatable=0;points=[[0,0.5],[1,0.5]];portConstraint=eastwest;" vertex="1" parent="TiyXwvmXW0x5IEj1qEjY-1">
          <mxGeometry y="442" width="140" height="26" as="geometry" />
        </mxCell>
        <mxCell id="TiyXwvmXW0x5IEj1qEjY-16" value="marital" style="text;strokeColor=none;fillColor=none;align=left;verticalAlign=top;spacingLeft=4;spacingRight=4;overflow=hidden;rotatable=0;points=[[0,0.5],[1,0.5]];portConstraint=eastwest;" vertex="1" parent="TiyXwvmXW0x5IEj1qEjY-1">
          <mxGeometry y="468" width="140" height="26" as="geometry" />
        </mxCell>
        <mxCell id="TiyXwvmXW0x5IEj1qEjY-17" value="relatives" style="text;strokeColor=none;fillColor=none;align=left;verticalAlign=top;spacingLeft=4;spacingRight=4;overflow=hidden;rotatable=0;points=[[0,0.5],[1,0.5]];portConstraint=eastwest;" vertex="1" parent="TiyXwvmXW0x5IEj1qEjY-1">
          <mxGeometry y="494" width="140" height="26" as="geometry" />
        </mxCell>
        <mxCell id="TiyXwvmXW0x5IEj1qEjY-18" value="military" style="text;strokeColor=none;fillColor=none;align=left;verticalAlign=top;spacingLeft=4;spacingRight=4;overflow=hidden;rotatable=0;points=[[0,0.5],[1,0.5]];portConstraint=eastwest;" vertex="1" parent="TiyXwvmXW0x5IEj1qEjY-1">
          <mxGeometry y="520" width="140" height="26" as="geometry" />
        </mxCell>
        <mxCell id="TiyXwvmXW0x5IEj1qEjY-19" value="employment" style="text;strokeColor=none;fillColor=none;align=left;verticalAlign=top;spacingLeft=4;spacingRight=4;overflow=hidden;rotatable=0;points=[[0,0.5],[1,0.5]];portConstraint=eastwest;" vertex="1" parent="TiyXwvmXW0x5IEj1qEjY-1">
          <mxGeometry y="546" width="140" height="26" as="geometry" />
        </mxCell>
        <mxCell id="TiyXwvmXW0x5IEj1qEjY-20" value="salary" style="text;strokeColor=none;fillColor=none;align=left;verticalAlign=top;spacingLeft=4;spacingRight=4;overflow=hidden;rotatable=0;points=[[0,0.5],[1,0.5]];portConstraint=eastwest;" vertex="1" parent="TiyXwvmXW0x5IEj1qEjY-1">
          <mxGeometry y="572" width="140" height="26" as="geometry" />
        </mxCell>
        <mxCell id="TiyXwvmXW0x5IEj1qEjY-21" value="schedule" style="text;strokeColor=none;fillColor=none;align=left;verticalAlign=top;spacingLeft=4;spacingRight=4;overflow=hidden;rotatable=0;points=[[0,0.5],[1,0.5]];portConstraint=eastwest;" vertex="1" parent="TiyXwvmXW0x5IEj1qEjY-1">
          <mxGeometry y="598" width="140" height="26" as="geometry" />
        </mxCell>
        <mxCell id="TiyXwvmXW0x5IEj1qEjY-22" value="department" style="text;strokeColor=none;fillColor=none;align=left;verticalAlign=top;spacingLeft=4;spacingRight=4;overflow=hidden;rotatable=0;points=[[0,0.5],[1,0.5]];portConstraint=eastwest;" vertex="1" parent="TiyXwvmXW0x5IEj1qEjY-1">
          <mxGeometry y="624" width="140" height="26" as="geometry" />
        </mxCell>
        <mxCell id="TiyXwvmXW0x5IEj1qEjY-23" value="start_date" style="text;strokeColor=none;fillColor=none;align=left;verticalAlign=top;spacingLeft=4;spacingRight=4;overflow=hidden;rotatable=0;points=[[0,0.5],[1,0.5]];portConstraint=eastwest;" vertex="1" parent="TiyXwvmXW0x5IEj1qEjY-1">
          <mxGeometry y="650" width="140" height="26" as="geometry" />
        </mxCell>
        <mxCell id="TiyXwvmXW0x5IEj1qEjY-24" value="probation" style="text;strokeColor=none;fillColor=none;align=left;verticalAlign=top;spacingLeft=4;spacingRight=4;overflow=hidden;rotatable=0;points=[[0,0.5],[1,0.5]];portConstraint=eastwest;" vertex="1" parent="TiyXwvmXW0x5IEj1qEjY-1">
          <mxGeometry y="676" width="140" height="26" as="geometry" />
        </mxCell>
        <mxCell id="TiyXwvmXW0x5IEj1qEjY-25" value="dismissal" style="text;strokeColor=none;fillColor=none;align=left;verticalAlign=top;spacingLeft=4;spacingRight=4;overflow=hidden;rotatable=0;points=[[0,0.5],[1,0.5]];portConstraint=eastwest;" vertex="1" parent="TiyXwvmXW0x5IEj1qEjY-1">
          <mxGeometry y="702" width="140" height="26" as="geometry" />
        </mxCell>
        <mxCell id="TiyXwvmXW0x5IEj1qEjY-26" value="reason_dismissal" style="text;strokeColor=none;fillColor=none;align=left;verticalAlign=top;spacingLeft=4;spacingRight=4;overflow=hidden;rotatable=0;points=[[0,0.5],[1,0.5]];portConstraint=eastwest;" vertex="1" parent="TiyXwvmXW0x5IEj1qEjY-1">
          <mxGeometry y="728" width="140" height="26" as="geometry" />
        </mxCell>
        <mxCell id="TiyXwvmXW0x5IEj1qEjY-27" value="equipment" style="text;strokeColor=none;fillColor=none;align=left;verticalAlign=top;spacingLeft=4;spacingRight=4;overflow=hidden;rotatable=0;points=[[0,0.5],[1,0.5]];portConstraint=eastwest;" vertex="1" parent="TiyXwvmXW0x5IEj1qEjY-1">
          <mxGeometry y="754" width="140" height="26" as="geometry" />
        </mxCell>
        <mxCell id="TiyXwvmXW0x5IEj1qEjY-35" value="books" style="text;strokeColor=none;fillColor=none;align=left;verticalAlign=top;spacingLeft=4;spacingRight=4;overflow=hidden;rotatable=0;points=[[0,0.5],[1,0.5]];portConstraint=eastwest;" vertex="1" parent="TiyXwvmXW0x5IEj1qEjY-1">
          <mxGeometry y="780" width="140" height="26" as="geometry" />
        </mxCell>
        <mxCell id="TiyXwvmXW0x5IEj1qEjY-36" value="subscription" style="text;strokeColor=none;fillColor=none;align=left;verticalAlign=top;spacingLeft=4;spacingRight=4;overflow=hidden;rotatable=0;points=[[0,0.5],[1,0.5]];portConstraint=eastwest;" vertex="1" parent="TiyXwvmXW0x5IEj1qEjY-1">
          <mxGeometry y="806" width="140" height="26" as="geometry" />
        </mxCell>
        <mxCell id="TiyXwvmXW0x5IEj1qEjY-28" value="office_keys" style="text;strokeColor=none;fillColor=none;align=left;verticalAlign=top;spacingLeft=4;spacingRight=4;overflow=hidden;rotatable=0;points=[[0,0.5],[1,0.5]];portConstraint=eastwest;" vertex="1" parent="TiyXwvmXW0x5IEj1qEjY-1">
          <mxGeometry y="832" width="140" height="26" as="geometry" />
        </mxCell>
        <mxCell id="TiyXwvmXW0x5IEj1qEjY-29" value="documents" style="text;strokeColor=none;fillColor=none;align=left;verticalAlign=top;spacingLeft=4;spacingRight=4;overflow=hidden;rotatable=0;points=[[0,0.5],[1,0.5]];portConstraint=eastwest;" vertex="1" parent="TiyXwvmXW0x5IEj1qEjY-1">
          <mxGeometry y="858" width="140" height="26" as="geometry" />
        </mxCell>
        <mxCell id="TiyXwvmXW0x5IEj1qEjY-30" value="being_late" style="text;strokeColor=none;fillColor=none;align=left;verticalAlign=top;spacingLeft=4;spacingRight=4;overflow=hidden;rotatable=0;points=[[0,0.5],[1,0.5]];portConstraint=eastwest;" vertex="1" parent="TiyXwvmXW0x5IEj1qEjY-1">
          <mxGeometry y="884" width="140" height="26" as="geometry" />
        </mxCell>
        <mxCell id="TiyXwvmXW0x5IEj1qEjY-31" value="vacation_count" style="text;strokeColor=none;fillColor=none;align=left;verticalAlign=top;spacingLeft=4;spacingRight=4;overflow=hidden;rotatable=0;points=[[0,0.5],[1,0.5]];portConstraint=eastwest;" vertex="1" parent="TiyXwvmXW0x5IEj1qEjY-1">
          <mxGeometry y="910" width="140" height="26" as="geometry" />
        </mxCell>
        <mxCell id="TiyXwvmXW0x5IEj1qEjY-32" value="job_history" style="text;strokeColor=none;fillColor=none;align=left;verticalAlign=top;spacingLeft=4;spacingRight=4;overflow=hidden;rotatable=0;points=[[0,0.5],[1,0.5]];portConstraint=eastwest;" vertex="1" parent="TiyXwvmXW0x5IEj1qEjY-1">
          <mxGeometry y="936" width="140" height="26" as="geometry" />
        </mxCell>
        <mxCell id="TiyXwvmXW0x5IEj1qEjY-33" value="additional_information" style="text;strokeColor=none;fillColor=none;align=left;verticalAlign=top;spacingLeft=4;spacingRight=4;overflow=hidden;rotatable=0;points=[[0,0.5],[1,0.5]];portConstraint=eastwest;" vertex="1" parent="TiyXwvmXW0x5IEj1qEjY-1">
          <mxGeometry y="962" width="140" height="26" as="geometry" />
        </mxCell>
      </root>
    </mxGraphModel>
  </diagram>
</mxfile>
